<svg width="22" height="22" viewBox="0 0 22 22" fill="none" xmlns="http://www.w3.org/2000/svg">
<path fill-rule="evenodd" clip-rule="evenodd" d="M9.05878 0C4.05576 0 0 4.05576 0 9.05878C0 14.0618 4.05576 18.1176 9.05878 18.1176C11.0936 18.1176 12.9716 17.4467 14.4839 16.3141L19.7908 21.621C20.2962 22.1263 21.1156 22.1263 21.621 21.621C22.1263 21.1156 22.1263 20.2962 21.621 19.7908L16.3141 14.4839C17.4467 12.9716 18.1176 11.0936 18.1176 9.05878C18.1176 4.05576 14.0618 0 9.05878 0ZM2.58822 9.05878C2.58822 5.48519 5.48519 2.58822 9.05878 2.58822C12.6324 2.58822 15.5293 5.48519 15.5293 9.05878C15.5293 12.6324 12.6324 15.5293 9.05878 15.5293C5.48519 15.5293 2.58822 12.6324 2.58822 9.05878Z" fill="#14CCAB"/>
</svg>
