<svg width="42" height="42" viewBox="0 0 42 42" fill="none" xmlns="http://www.w3.org/2000/svg">
<path d="M5.71333 33.8978C10.3765 31.262 15.6435 29.8808 21 29.8889C26.5556 29.8889 31.7711 31.3444 36.2867 33.8978M27.6667 16.5556C27.6667 18.3237 26.9643 20.0194 25.714 21.2696C24.4638 22.5198 22.7681 23.2222 21 23.2222C19.2319 23.2222 17.5362 22.5198 16.286 21.2696C15.0357 20.0194 14.3333 18.3237 14.3333 16.5556C14.3333 14.7874 15.0357 13.0918 16.286 11.8415C17.5362 10.5913 19.2319 9.88889 21 9.88889C22.7681 9.88889 24.4638 10.5913 25.714 11.8415C26.9643 13.0918 27.6667 14.7874 27.6667 16.5556ZM41 21C41 23.6264 40.4827 26.2272 39.4776 28.6537C38.4725 31.0802 36.9993 33.285 35.1421 35.1421C33.285 36.9993 31.0802 38.4725 28.6537 39.4776C26.2272 40.4827 23.6264 41 21 41C18.3736 41 15.7728 40.4827 13.3463 39.4776C10.9198 38.4725 8.71504 36.9993 6.85786 35.1421C5.00069 33.285 3.5275 31.0802 2.52241 28.6537C1.51732 26.2272 1 23.6264 1 21C1 15.6957 3.10714 10.6086 6.85786 6.85786C10.6086 3.10714 15.6957 1 21 1C26.3043 1 31.3914 3.10714 35.1421 6.85786C38.8929 10.6086 41 15.6957 41 21Z" stroke="black" stroke-width="2" stroke-linecap="round" stroke-linejoin="round"/>
</svg>
